<svg width="434" height="89" viewBox="0 0 434 89" fill="none" xmlns="http://www.w3.org/2000/svg">
<rect width="434" height="89" fill="#0000FF"/>
<rect width="434" height="89" fill="black"/>
<path d="M98.45 25.75H85V60.75H92.55V49.85H98.45C105.5 49.85 110.8 44.7 110.8 37.8C110.8 30.9 105.45 25.75 98.45 25.75ZM98.1 42.85H92.55V32.8H98.1C101.1 32.8 103.15 34.9 103.15 37.8C103.15 40.7 101.1 42.85 98.1 42.85Z" fill="white"/>
<path d="M127.704 61.45C134.954 61.45 140.954 57.8 140.954 50.25C140.954 42.4 134.254 40.75 128.954 39.4C125.204 38.5 122.204 37.75 122.204 35.3C122.204 33 124.654 31.95 127.104 31.95C129.954 31.95 132.454 33.35 132.454 36.4H139.904C139.904 29.4 135.354 25.1 127.304 25.1C119.554 25.1 114.604 28.9 114.604 35.6C114.604 43.15 121.004 44.7 126.304 46C130.104 46.85 133.304 47.6 133.304 50.35C133.304 52.95 130.504 54.45 127.654 54.45C124.554 54.45 121.754 52.8 121.754 49.45H114.104C114.104 56.95 119.654 61.45 127.704 61.45Z" fill="white"/>
<path d="M188.173 60.75L174.873 42.6L186.873 25.75H178.073L166.573 41.95V25.75H159.023V60.75H166.573V43.65L178.923 60.75H188.173Z" fill="white"/>
<path d="M191.787 60.75H199.337V25.75H191.787V60.75Z" fill="white"/>
<path d="M231.463 25.75H204.413V32.8H214.163V60.75H221.713V32.8H231.463V25.75Z" fill="white"/>
<path d="M251.489 61.55C260.139 61.55 266.939 55.75 268.539 47.1H260.889C259.639 51.5 256.089 54.3 251.489 54.3C245.539 54.3 241.089 49.6 241.089 43.3C241.089 37 245.539 32.25 251.489 32.25C255.889 32.25 259.389 34.85 260.839 38.95H268.389C266.789 30.65 259.989 25 251.489 25C241.189 25 233.389 32.9 233.389 43.3C233.389 53.65 241.189 61.55 251.489 61.55Z" fill="white"/>
<path d="M294.764 25.75V39.25H281.564V25.75H274.014V60.75H281.564V46.3H294.764V60.75H302.314V25.75H294.764Z" fill="white"/>
<path d="M317.892 53.75V46.55H330.042V39.7H317.892V32.75H331.342V25.75H310.342V60.75H331.892V53.75H317.892Z" fill="white"/>
<path d="M360.421 25.75V47.1L345.071 25.75H338.271V60.75H345.671V38.9L361.521 60.75H367.871V25.75H360.421Z" fill="white"/>
<rect x="377" y="53" width="33" height="8" fill="#FF00FF"/>
<path fill-rule="evenodd" clip-rule="evenodd" d="M41.4054 20.0767C42.8434 21.4507 44.1215 22.9845 45.2399 24.6301C48.1637 28.9599 49.8892 34.1364 49.8892 39.7123C49.8892 46.7741 44.1694 52.4938 37.1077 52.4938C30.0459 52.4938 24.3261 46.7741 24.3261 39.7123C24.3261 35.6542 25.4126 31.8517 27.3138 28.5924C27.5695 28.1291 27.8411 27.6977 28.1286 27.2663C28.5121 26.6752 29.3908 26.8829 29.5666 27.5539C29.6624 27.9054 29.7263 28.0971 29.8861 28.4167C30.7648 30.5416 32.7779 32.0274 35.2384 32.0274C38.5296 32.0274 40.6865 29.3593 40.6865 26.0681C40.6865 24.2946 40.3669 22.3135 40.0634 20.8117C39.9036 20.0448 40.8462 19.5335 41.4054 20.0767ZM31.4998 42.684C31.4998 45.464 33.8004 47.7008 36.6443 47.7008C40.8782 47.7008 44.3132 44.2657 44.2973 40.0319C44.2973 38.3223 44.1055 36.6288 43.7381 34.9991C43.6102 34.408 42.8753 34.2163 42.428 34.6317C40.7504 36.2134 38.3379 37.2199 35.9893 37.6992C33.1773 38.2744 31.4998 40.0958 31.4998 42.684Z" fill="#00FF00"/>
<path d="M13 56.3846H61C61 63.182 55.4897 68.6923 48.6923 68.6923H25.3077C18.5103 68.6923 13 63.182 13 56.3846Z" fill="white"/>
</svg>
